name rise35.5848peak51.9257fall54.8793.mot
datacolumns 19
datarows 15
range 10.03495400000000 10.05830300000000
endheader
time	ground_force1_vx	ground_force1_vy	ground_force1_vz	ground_force1_px	ground_force1_py	ground_force1_pz	ground_force2_vx	ground_force2_vy	ground_force2_vz	ground_force2_px	ground_force2_py	ground_force2_pz	ground_torque1_x	ground_torque1_y	ground_torque1_z	ground_torque2_x	ground_torque2_y	ground_torque2_z	
10.03495400000000	25.28105000000000	692.30612199999996	32.76677800000000	0.22278700000000	0.00000000000000	0.06060300000000	0.00000000000000	0.00000000000000	0.00000000000000	0.00000000000000	0.00000000000000	0.00000000000000	0.00000000000000	11.80411900000000	0.00000000000000	0.00000000000000	0.00000000000000	0.00000000000000	
10.03663600000000	25.04356100000000	692.36944800000003	32.73881100000000	0.22204400000000	0.00000000000000	0.06054900000000	0.00000000000000	0.00000000000000	0.00000000000000	0.00000000000000	0.00000000000000	0.00000000000000	0.00000000000000	11.80583800000000	0.00000000000000	0.00000000000000	0.00000000000000	0.00000000000000	
10.03829200000000	24.79726800000000	692.50268200000005	32.71911800000000	0.22129100000000	0.00000000000000	0.06049800000000	0.00000000000000	0.00000000000000	0.00000000000000	0.00000000000000	0.00000000000000	0.00000000000000	0.00000000000000	11.81209700000000	0.00000000000000	0.00000000000000	0.00000000000000	0.00000000000000	
10.03995600000000	24.54181900000000	692.70426199999997	32.70741000000000	0.22052800000000	0.00000000000000	0.06044900000000	0.00000000000000	0.00000000000000	0.00000000000000	0.00000000000000	0.00000000000000	0.00000000000000	0.00000000000000	11.82275500000000	0.00000000000000	0.00000000000000	0.00000000000000	0.00000000000000	
10.04163500000000	24.27688800000000	692.97254799999996	32.70337800000000	0.21975400000000	0.00000000000000	0.06040200000000	0.00000000000000	0.00000000000000	0.00000000000000	0.00000000000000	0.00000000000000	0.00000000000000	0.00000000000000	11.83766400000000	0.00000000000000	0.00000000000000	0.00000000000000	0.00000000000000	
10.04329700000000	24.00217000000000	693.30583200000001	32.70670000000000	0.21897000000000	0.00000000000000	0.06035800000000	0.00000000000000	0.00000000000000	0.00000000000000	0.00000000000000	0.00000000000000	0.00000000000000	0.00000000000000	11.85666800000000	0.00000000000000	0.00000000000000	0.00000000000000	0.00000000000000	
10.04495800000000	23.71738700000000	693.70234600000003	32.71703800000000	0.21817500000000	0.00000000000000	0.06031500000000	0.00000000000000	0.00000000000000	0.00000000000000	0.00000000000000	0.00000000000000	0.00000000000000	0.00000000000000	11.87960700000000	0.00000000000000	0.00000000000000	0.00000000000000	0.00000000000000	
10.04663400000000	23.42228700000000	694.16026899999997	32.73404500000000	0.21736900000000	0.00000000000000	0.06027400000000	0.00000000000000	0.00000000000000	0.00000000000000	0.00000000000000	0.00000000000000	0.00000000000000	0.00000000000000	11.90631100000000	0.00000000000000	0.00000000000000	0.00000000000000	0.00000000000000	
10.04830000000000	23.11664600000000	694.67773299999999	32.75736100000000	0.21655200000000	0.00000000000000	0.06023500000000	0.00000000000000	0.00000000000000	0.00000000000000	0.00000000000000	0.00000000000000	0.00000000000000	0.00000000000000	11.93660800000000	0.00000000000000	0.00000000000000	0.00000000000000	0.00000000000000	
10.04996100000000	22.80026600000000	695.25283200000001	32.78662000000000	0.21572500000000	0.00000000000000	0.06019800000000	0.00000000000000	0.00000000000000	0.00000000000000	0.00000000000000	0.00000000000000	0.00000000000000	0.00000000000000	11.97032000000000	0.00000000000000	0.00000000000000	0.00000000000000	0.00000000000000	
10.05164500000000	22.47297800000000	695.88362500000005	32.82145100000000	0.21488700000000	0.00000000000000	0.06016300000000	0.00000000000000	0.00000000000000	0.00000000000000	0.00000000000000	0.00000000000000	0.00000000000000	0.00000000000000	12.00726500000000	0.00000000000000	0.00000000000000	0.00000000000000	0.00000000000000	
10.05329800000000	22.13464300000000	696.56814799999995	32.86147700000000	0.21403900000000	0.00000000000000	0.06012900000000	0.00000000000000	0.00000000000000	0.00000000000000	0.00000000000000	0.00000000000000	0.00000000000000	0.00000000000000	12.04726000000000	0.00000000000000	0.00000000000000	0.00000000000000	0.00000000000000	
10.05495700000000	21.78515200000000	697.30441699999994	32.90632200000000	0.21318100000000	0.00000000000000	0.06009700000000	0.00000000000000	0.00000000000000	0.00000000000000	0.00000000000000	0.00000000000000	0.00000000000000	0.00000000000000	12.09011600000000	0.00000000000000	0.00000000000000	0.00000000000000	0.00000000000000	
10.05663500000000	21.42442100000000	698.09043299999996	32.95560800000000	0.21231300000000	0.00000000000000	0.06006600000000	0.00000000000000	0.00000000000000	0.00000000000000	0.00000000000000	0.00000000000000	0.00000000000000	0.00000000000000	12.13564600000000	0.00000000000000	0.00000000000000	0.00000000000000	0.00000000000000	
10.05830300000000	21.05240100000000	698.92419299999995	33.00896100000000	0.21143600000000	0.00000000000000	0.06003600000000	0.00000000000000	0.00000000000000	0.00000000000000	0.00000000000000	0.00000000000000	0.00000000000000	0.00000000000000	12.18365800000000	0.00000000000000	0.00000000000000	0.00000000000000	0.00000000000000	
